<?xml version="1.0" encoding="UTF-8" standalone="no"?>
<!-- Created with Inkscape (http://www.inkscape.org/) -->

<svg
   width="750mm"
   height="184mm"
   viewBox="0 0 750 184"
   version="1.1"
   id="svg5"
   inkscape:version="1.1 (c4e8f9ed74, 2021-05-24)"
   sodipodi:docname="randfacts.svg"
   inkscape:export-filename="/home/tabulate/randfacts/randfacts.png"
   inkscape:export-xdpi="95.986099"
   inkscape:export-ydpi="95.986099"
   xmlns:inkscape="http://www.inkscape.org/namespaces/inkscape"
   xmlns:sodipodi="http://sodipodi.sourceforge.net/DTD/sodipodi-0.dtd"
   xmlns="http://www.w3.org/2000/svg"
   xmlns:svg="http://www.w3.org/2000/svg">
  <sodipodi:namedview
     id="namedview7"
     pagecolor="#505050"
     bordercolor="#eeeeee"
     borderopacity="1"
     inkscape:pageshadow="0"
     inkscape:pageopacity="0"
     inkscape:pagecheckerboard="0"
     inkscape:document-units="mm"
     showgrid="false"
     width="750mm"
     inkscape:zoom="0.39910213"
     inkscape:cx="940.86193"
     inkscape:cy="532.44517"
     inkscape:window-width="1920"
     inkscape:window-height="1051"
     inkscape:window-x="1920"
     inkscape:window-y="0"
     inkscape:window-maximized="1"
     inkscape:current-layer="layer1" />
  <defs
     id="defs2">
    <inkscape:perspective
       sodipodi:type="inkscape:persp3d"
       inkscape:vp_x="0 : 92 : 1"
       inkscape:vp_y="0 : 1000 : 0"
       inkscape:vp_z="750 : 92 : 1"
       inkscape:persp3d-origin="375 : 61.333333 : 1"
       id="perspective110518" />
  </defs>
  <g
     inkscape:label="Layer 1"
     inkscape:groupmode="layer"
     id="layer1">
    <path
       style="fill:#ff0000;fill-opacity:1;stroke:#f2f2f2;stroke-width:0.264999;stroke-miterlimit:4;stroke-dasharray:none;stroke-opacity:0.579807"
       id="path114691"
       d="m 393.05536,27.789235 c -2.03308,0.03527 -4.06802,-0.05422 -6.09242,0.21391 -8.05813,1.06726 -16.01947,3.182895 -23.90746,5.043228 -21.63869,5.533189 -42.94897,12.903279 -62.70805,23.427531 -13.88105,7.393456 -15.10239,8.690531 -26.79835,16.853056 -3.30237,3.070683 -10.47575,7.504546 -9.6917,13.641893 0.8121,6.35686 9.51856,10.548839 13.86553,12.5217 10.56939,4.796907 21.40619,6.958817 32.59426,9.790377 14.5148,3.33451 29.19547,5.84222 43.86974,8.34411 2.54151,0.43331 12.34183,1.98163 15.57335,2.87312 1.41446,0.39021 2.73682,1.05904 4.10522,1.58857 0.55134,0.77588 1.72096,1.37818 1.65402,2.32764 -0.0992,1.40724 -1.04979,2.72109 -2.07809,3.6869 -5.65955,5.3156 -12.46513,7.76633 -19.704,10.30816 -22.09795,7.75942 -27.23587,8.36537 -51.25524,14.31915 -10.43297,2.04756 -20.86597,4.09512 -31.29897,6.14268 0,0 -1.41523,1.07043 -1.41523,1.07043 v 0 c 10.38873,-2.0102 20.77747,-4.02041 31.16617,-6.03062 16.68119,-4.03024 34.38179,-7.67527 50.56968,-13.73372 6.02038,-2.25318 11.8827,-4.96118 17.5454,-8.00349 2.10132,-1.12892 9.62969,-5.26044 9.70936,-9.67725 0.0185,-1.02547 -1.23759,-1.63589 -1.85637,-2.45384 -1.42156,-0.51706 -2.79921,-1.17616 -4.26469,-1.55118 -3.16105,-0.80893 -13.48893,-2.28603 -15.89124,-2.6628 -14.79362,-2.32018 -29.58468,-4.72251 -44.18418,-8.09452 -11.47124,-2.96621 -21.43101,-4.91583 -32.17121,-9.966319 -4.10361,-1.929691 -12.58512,-6.209757 -13.37331,-12.285411 -0.77584,-5.980454 6.16243,-10.265783 9.37762,-13.276381 8.95022,-6.262116 12.13014,-8.910677 21.77132,-13.992614 19.69596,-10.381895 40.75763,-17.970119 62.36481,-23.243931 7.72715,-1.75939 15.50537,-3.718523 23.38702,-4.722363 1.98625,-0.252979 3.97642,-0.173339 5.96987,-0.156943 0,0 3.16714,-2.301073 3.16714,-2.301073 z" />
    <g
       aria-label="randfacts"
       transform="scale(0.99794583,1.0020584)"
       id="text10065"
       style="font-size:140.825px;line-height:1.25;font-family:'Anonymous Pro';-inkscape-font-specification:'Anonymous Pro';stroke:#f2f2f2;stroke-width:1.06283">
      <path
         d="m 99.588501,87.754054 q -2.544201,-1.23772 -5.225927,-1.85658 -2.612964,-0.687622 -6.051075,-0.687622 -4.744592,0 -8.939086,1.444007 -4.125733,1.375244 -7.15127,4.194494 -3.025537,2.81925 -4.744592,7.082507 -1.650293,4.19449 -1.650293,9.97052 v 15.95283 h 14.371301 v 12.78977 H 37.083656 V 123.85421 H 51.592482 V 85.416139 H 37.083656 V 72.557606 h 28.742602 v 16.090356 q 3.506873,-9.626708 10.314331,-13.614916 6.876221,-3.988208 16.296643,-3.988208 2.956775,0 6.188598,0.61886 3.23182,0.61886 6.32612,2.20039 z"
         style="font-weight:bold;-inkscape-font-specification:'Anonymous Pro Bold';fill:#333333"
         id="path2311" />
      <path
         d="m 113.68475,118.21571 q 0,-5.6385 3.02554,-9.83299 3.02554,-4.26326 7.90765,-7.08251 4.95088,-2.819252 11.277,-4.194496 6.39489,-1.444007 12.99606,-1.444007 3.6444,0 6.25736,0.137525 2.61297,0.137524 5.29469,0.412573 v -2.544202 q 0,-5.019641 -3.91944,-7.49508 -3.85069,-2.475439 -10.17681,-2.475439 -5.77603,0 -11.75834,1.650293 -5.98231,1.58153 -11.34576,4.67583 l -5.77603,-11.139478 q 6.32613,-3.644397 13.54616,-5.707263 7.28879,-2.131628 15.33397,-2.131628 5.22593,0 10.24557,1.168957 5.0884,1.168958 9.07661,3.850684 4.05697,2.681726 6.46365,7.013745 2.40667,4.263257 2.40667,10.589379 v 42.976377 h -14.09625 v -9.42042 q -3.36935,5.22593 -9.97052,8.11394 -6.53241,2.88801 -14.09625,2.88801 -4.67583,0 -8.87032,-1.30648 -4.12574,-1.23772 -7.15127,-3.78192 -3.02554,-2.5442 -4.88212,-6.25736 -1.78782,-3.78192 -1.78782,-8.66404 z m 26.33593,7.28879 q 4.19449,0 7.83889,-1.03143 3.71316,-1.10019 6.53241,-2.95677 2.81925,-1.92535 4.40078,-4.60707 1.65029,-2.68173 1.65029,-5.91355 V 108.589 q -3.36935,-0.5501 -6.32612,-0.61886 -2.95678,-0.0688 -5.22593,-0.0688 -10.45185,0 -15.81531,2.75049 -5.29469,2.75049 -5.29469,6.80746 0,8.04517 12.23968,8.04517 z"
         style="font-weight:bold;-inkscape-font-specification:'Anonymous Pro Bold';fill:#333333"
         id="path2313" />
      <path
         d="M 251.55297,136.64398 H 237.3192 V 97.105714 q 0,-7.495081 -2.81925,-10.383093 -2.81925,-2.888013 -8.18271,-2.888013 -7.90765,0 -12.92729,6.394885 -4.95088,6.394885 -4.95088,17.671887 v 28.7426 H 194.20529 V 72.557606 h 14.23378 v 16.090356 q 2.13163,-8.320226 7.90765,-12.927294 5.77603,-4.67583 14.23378,-4.67583 9.833,0 15.40273,6.394885 5.56974,6.394885 5.56974,19.665991 z"
         style="font-weight:bold;-inkscape-font-specification:'Anonymous Pro Bold';fill:#333333"
         id="path2315" />
      <path
         d="m 328.42912,136.64398 h -14.23378 v -5.91355 q -4.12573,3.6444 -8.32023,5.56974 -4.19449,1.92534 -9.55794,1.92534 -6.1886,0 -11.48329,-2.47544 -5.29469,-2.47544 -9.14537,-6.87622 -3.78193,-4.46954 -5.98232,-10.65814 -2.13162,-6.1886 -2.13162,-13.54615 0,-7.288797 2.13162,-13.477396 2.20039,-6.257361 5.98232,-10.658142 3.85068,-4.469543 9.14537,-6.944983 5.29469,-2.544201 11.48329,-2.544201 5.36345,0 9.55794,1.856579 4.1945,1.787818 8.32023,5.432215 V 59.767836 h -12.3772 V 46.909304 h 26.61098 z M 314.19534,89.610633 q -2.5442,-2.81925 -6.60117,-4.263256 -3.98821,-1.512769 -7.63261,-1.512769 -8.04517,0 -13.13358,5.776025 -5.01964,5.776026 -5.01964,15.058927 0,9.28289 5.01964,14.99016 5.08841,5.70726 13.13358,5.70726 3.6444,0 7.63261,-1.44401 4.05697,-1.51276 6.60117,-4.33202 z"
         style="font-weight:bold;-inkscape-font-specification:'Anonymous Pro Bold';fill:#333333"
         id="path2317" />
      <path
         d="m 408.67461,85.416139 h -24.96068 v 38.438071 h 14.64635 v 12.78977 h -43.04514 v -12.78977 h 14.16501 V 85.416139 H 355.31514 V 72.557606 h 14.16501 q 0,-13.202343 8.11394,-20.147326 8.11394,-7.013745 21.93515,-7.013745 2.06286,0 4.40078,0.206287 2.33791,0.206286 4.74459,0.481335 v 12.514722 q -4.12573,-0.412574 -7.49508,-0.412574 -5.50098,0 -8.87033,0.825147 -3.36934,0.756384 -5.29469,2.544201 -1.85657,1.719056 -2.61296,4.469544 -0.68762,2.750488 -0.68762,6.532409 h 24.96068 z"
         style="font-weight:bold;-inkscape-font-specification:'Anonymous Pro Bold';fill:#333333"
         id="path2319" />
      <path
         d="m 421.18934,118.21571 q 0,-5.6385 3.02554,-9.83299 3.02554,-4.26326 7.90766,-7.08251 4.95087,-2.819252 11.277,-4.194496 6.39488,-1.444007 12.99605,-1.444007 3.6444,0 6.25736,0.137525 2.61297,0.137524 5.29469,0.412573 v -2.544202 q 0,-5.019641 -3.91944,-7.49508 -3.85068,-2.475439 -10.17681,-2.475439 -5.77602,0 -11.75833,1.650293 -5.98232,1.58153 -11.34577,4.67583 l -5.77602,-11.139478 q 6.32612,-3.644397 13.54615,-5.707263 7.28879,-2.131628 15.33397,-2.131628 5.22593,0 10.24557,1.168957 5.0884,1.168958 9.07661,3.850684 4.05697,2.681726 6.46365,7.013745 2.40668,4.263257 2.40668,10.589379 v 42.976377 h -14.09626 v -9.42042 q -3.36934,5.22593 -9.97052,8.11394 -6.5324,2.88801 -14.09625,2.88801 -4.67583,0 -8.87032,-1.30648 -4.12573,-1.23772 -7.15127,-3.78192 -3.02554,-2.5442 -4.88212,-6.25736 -1.78782,-3.78192 -1.78782,-8.66404 z m 26.33593,7.28879 q 4.19449,0 7.83889,-1.03143 3.71316,-1.10019 6.53241,-2.95677 2.81925,-1.92535 4.40078,-4.60707 1.65029,-2.68173 1.65029,-5.91355 V 108.589 q -3.36934,-0.5501 -6.32612,-0.61886 -2.95677,-0.0688 -5.22593,-0.0688 -10.45185,0 -15.8153,2.75049 -5.29469,2.75049 -5.29469,6.80746 0,8.04517 12.23967,8.04517 z"
         style="font-weight:bold;-inkscape-font-specification:'Anonymous Pro Bold';fill:#333333"
         id="path2321" />
      <path
         d="m 560.02022,127.49861 q -6.1886,6.1886 -13.06482,8.45775 -6.80746,2.26915 -14.78387,2.26915 -8.04518,0 -14.64635,-2.40667 -6.53241,-2.40668 -11.13948,-6.7387 -4.5383,-4.40078 -7.01374,-10.58938 -2.40668,-6.1886 -2.40668,-13.8212 0,-7.288797 2.40668,-13.477396 2.47544,-6.257361 6.60117,-10.658142 4.19449,-4.469543 9.83299,-6.944983 5.6385,-2.544201 11.96463,-2.544201 6.60117,0 11.48329,2.750488 4.88211,2.750488 7.0825,8.045178 v -9.282898 h 12.72101 V 102.4004 h -12.72101 q 0,-8.457748 -4.67583,-13.477389 -4.60707,-5.088403 -12.03338,-5.088403 -2.95678,0 -6.25736,1.23772 -3.23183,1.168957 -5.98232,3.713159 -2.68172,2.544201 -4.46954,6.463647 -1.78782,3.919446 -1.78782,9.420426 0,5.36345 1.71906,9.28289 1.71905,3.85069 4.46954,6.39489 2.81925,2.47544 6.60117,3.78192 3.85069,1.23772 7.90766,1.23772 6.94498,0 12.03338,-2.13163 5.15717,-2.20039 8.87033,-5.77602 z"
         style="font-weight:bold;-inkscape-font-specification:'Anonymous Pro Bold';fill:#333333"
         id="path2323" />
      <path
         d="m 639.99065,116.22161 q -1.1002,10.10804 -7.97642,16.09035 -6.80745,5.91355 -17.05302,5.91355 -5.6385,0 -10.31433,-1.85658 -4.67583,-1.85658 -7.97642,-5.15716 -3.30059,-3.30059 -5.15717,-7.90766 -1.78781,-4.67583 -1.78781,-10.1768 V 85.416139 H 575.21665 V 72.557606 h 14.50883 V 46.909304 h 14.23377 v 25.648302 h 26.88603 v 12.858533 h -26.88603 v 27.711171 q 0,6.1886 3.02554,9.21413 3.02554,3.02554 7.97642,3.02554 6.05107,0 9.00785,-3.50687 2.95677,-3.50687 3.50687,-8.45775 z"
         style="font-weight:bold;-inkscape-font-specification:'Anonymous Pro Bold';fill:#333333"
         id="path2325" />
      <path
         d="m 714.46013,117.45933 q 0,6.25736 -2.81925,10.1768 -2.81925,3.91945 -7.28879,6.32613 -4.40078,2.40667 -9.90176,3.30058 -5.43221,0.96267 -10.65814,0.96267 -8.7328,0 -17.39684,-2.5442 -8.66404,-2.5442 -14.99016,-6.66993 l 5.91355,-11.68958 q 7.56384,4.40078 13.8212,6.25736 6.32613,1.78782 12.65225,1.78782 8.59527,0 12.51472,-1.78782 3.91945,-1.85658 3.91945,-5.0884 0,-1.58153 -1.1002,-2.61296 -1.1002,-1.03144 -3.6444,-1.85658 -2.5442,-0.89391 -6.73869,-1.71906 -4.12574,-0.89391 -10.31433,-1.85658 -4.95088,-0.82514 -9.42043,-1.9941 -4.40078,-1.23772 -7.77013,-3.43811 -3.36934,-2.20039 -5.43221,-5.569741 -1.9941,-3.369348 -1.9941,-8.457752 0,-5.157165 2.61296,-8.939086 2.68173,-3.850684 6.94498,-6.326123 4.33202,-2.47544 9.69547,-3.575635 5.36346,-1.100195 10.72691,-1.100195 7.56384,0 14.64635,1.994104 7.15127,1.925342 12.51472,5.569738 l -5.6385,11.001953 q -5.36345,-3.369348 -10.45186,-4.538305 -5.01964,-1.23772 -11.07071,-1.23772 -2.5442,0 -5.29469,0.275049 -2.75049,0.275049 -5.0884,1.100195 -2.33792,0.756384 -3.91945,2.131629 -1.51277,1.306481 -1.51277,3.231823 0,2.544202 4.46954,4.194495 4.53831,1.58153 15.40274,3.163061 5.91355,0.825147 10.79566,2.13163 4.88212,1.23772 8.38899,3.43811 3.50688,2.13163 5.43222,5.56974 1.9941,3.36935 1.9941,8.38899 z"
         style="font-weight:bold;-inkscape-font-specification:'Anonymous Pro Bold';fill:#333333"
         id="path2327" />
    </g>
    <text
       xml:space="preserve"
       style="font-size:105.833px;line-height:1.25;font-family:'Anonymous Pro';-inkscape-font-specification:'Anonymous Pro';stroke-width:0.264583"
       x="-180.47429"
       y="-36.236504"
       id="text48923"><tspan
         sodipodi:role="line"
         id="tspan48921"
         style="stroke-width:0.264583" /></text>
    <g
       sodipodi:type="inkscape:box3d"
       id="g110520"
       style="fill:#1a1a1a;stroke:#f2f2f2;stroke-width:3.26929;stroke-miterlimit:4;stroke-dasharray:none"
       inkscape:perspectiveID="#perspective110518"
       inkscape:corner0="21.206632 : 0.29357685 : 0 : 1"
       inkscape:corner7="3.5766609 : -0.21859493 : 0.25 : 1" />
  </g>
</svg>
